<svg width="28" height="24" viewBox="0 0 28 24" fill="none" xmlns="http://www.w3.org/2000/svg">
<path d="M10.5714 10.3333H3.71429C3.25963 10.3333 2.82359 10.1577 2.5021 9.84518C2.18061 9.53262 2 9.10869 2 8.66667V3.66667C2 3.22464 2.18061 2.80072 2.5021 2.48816C2.82359 2.1756 3.25963 2 3.71429 2H8.85714C9.3118 2 9.74783 2.1756 10.0693 2.48816C10.3908 2.80072 10.5714 3.22464 10.5714 3.66667V13.6667C10.5714 18.1117 8.28629 20.8883 3.71429 22M26 10.3333H19.1429C18.6882 10.3333 18.2522 10.1577 17.9307 9.84518C17.6092 9.53262 17.4286 9.10869 17.4286 8.66667V3.66667C17.4286 3.22464 17.6092 2.80072 17.9307 2.48816C18.2522 2.1756 18.6882 2 19.1429 2H24.2857C24.7404 2 25.1764 2.1756 25.4979 2.48816C25.8194 2.80072 26 3.22464 26 3.66667V13.6667C26 18.1117 23.7149 20.8883 19.1429 22" stroke="#FF9900" stroke-width="3" stroke-linecap="round" stroke-linejoin="round"/>
</svg>
