<svg width="24" height="24" viewBox="0 0 24 24" fill="none" xmlns="http://www.w3.org/2000/svg">
<path d="M11.9982 0L12.1399 0.00839996L12.2108 0.0180001L12.2841 0.0336001L12.4175 0.0744C12.5096 0.108316 12.5972 0.153457 12.6782 0.2088L12.8032 0.3072L13.1096 0.5688C15.5334 2.57948 18.5968 3.65916 21.7474 3.6132L22.1583 3.6012C22.427 3.58896 22.692 3.66708 22.9109 3.82308C23.1299 3.97907 23.2901 4.2039 23.3659 4.4616C23.9563 6.46749 24.137 8.57145 23.8972 10.6485C23.6574 12.7255 23.0019 14.7331 21.9699 16.5522C20.9378 18.3712 19.5501 19.9645 17.8894 21.2373C16.2286 22.5102 14.3285 23.4366 12.3021 23.9616C12.1044 24.0128 11.8968 24.0128 11.699 23.9616C9.67249 23.4367 7.77232 22.5104 6.11139 21.2376C4.45047 19.9648 3.06268 18.3716 2.03049 16.5525C0.998301 14.7335 0.342783 12.7257 0.102889 10.6487C-0.137004 8.57161 0.0436221 6.46757 0.634034 4.4616C0.709863 4.2039 0.870063 3.97907 1.08899 3.82308C1.30792 3.66708 1.57292 3.58896 1.84158 3.6012C5.13074 3.75136 8.35758 2.66999 10.8903 0.5688L11.2063 0.2988L11.3217 0.2088C11.4027 0.153457 11.4903 0.108316 11.5824 0.0744L11.717 0.0336001C11.7641 0.0222405 11.8118 0.013824 11.86 0.00839996L11.9982 0ZM16.4559 8.75159C16.3443 8.64002 16.2117 8.55151 16.0659 8.49112C15.92 8.43073 15.7637 8.39965 15.6058 8.39965C15.4479 8.39965 15.2915 8.43073 15.1456 8.49112C14.9998 8.55151 14.8673 8.64002 14.7557 8.75159L10.799 12.702L9.24544 11.1516L9.13249 11.052C8.891 10.8655 8.58747 10.7778 8.28358 10.8067C7.97968 10.8356 7.6982 10.979 7.4963 11.2077C7.2944 11.4363 7.18723 11.7332 7.19655 12.0379C7.20586 12.3427 7.33097 12.6324 7.54647 12.8484L9.94954 15.2484L10.0625 15.348C10.2937 15.5271 10.5823 15.6158 10.8743 15.5975C11.1663 15.5791 11.4416 15.455 11.6485 15.2484L16.4547 10.4484L16.5544 10.3356C16.7337 10.1047 16.8225 9.81641 16.8042 9.52478C16.7858 9.23314 16.6615 8.95823 16.4547 8.75159H16.4559Z" fill="#FF9900"/>
</svg>
