<svg width="49" height="43" viewBox="0 0 49 43" fill="none" xmlns="http://www.w3.org/2000/svg">
<path d="M24.5 29.5294H4.36842C3.74028 29.5294 3.13786 29.2877 2.69369 28.8575C2.24953 28.4272 2 27.8437 2 27.2353V4.29412C2 3.68568 2.24953 3.10216 2.69369 2.67193C3.13786 2.2417 3.74028 2 4.36842 2H42.2632C42.8913 2 43.4937 2.2417 43.9379 2.67193C44.3821 3.10216 44.6316 3.68568 44.6316 4.29412V22.6471M11.4737 38.7059H20.9474M16.2105 29.5294V38.7059M42.2632 41L47 36.4118L42.2632 31.8235M35.1579 31.8235L30.4211 36.4118L35.1579 41" stroke="#FF9900" stroke-width="3" stroke-linecap="round" stroke-linejoin="round"/>
</svg>
