<svg width="39" height="42" viewBox="0 0 39 42" fill="none" xmlns="http://www.w3.org/2000/svg">
<path d="M14.0312 40H6.375C5.21468 40 4.10188 39.5552 3.28141 38.7633C2.46094 37.9715 2 36.8976 2 35.7778V6.22222C2 5.10242 2.46094 4.02848 3.28141 3.23666C4.10188 2.44484 5.21468 2 6.375 2H23.875C25.0353 2 26.1481 2.44484 26.9686 3.23666C27.7891 4.02848 28.25 5.10242 28.25 6.22222V23.1111M32.625 40L37 35.7778L32.625 31.5556M26.0625 31.5556L21.6875 35.7778L26.0625 40M12.9375 4.11111H17.3125M15.125 31.5556V31.5767" stroke="#FF9900" stroke-width="3" stroke-linecap="round" stroke-linejoin="round"/>
</svg>
